<svg version="1.1" xmlns="http://www.w3.org/2000/svg" xmlns:xlink="http://www.w3.org/1999/xlink" x="0px" y="0px" viewBox="0 0 141.8 131.9" enable-background="new 0 0 141.8 131.9" xml:space="preserve"> <g id="Layer_1" display="none"> <g display="inline"> <g> <path fill="#58595B" d="M37.6,107.5c-1.2,0-2.4-0.4-3.3-1.2c-1.1-0.9-1.7-2.2-1.7-3.6c-0.1-1.8-1-44.6,23-65.6 C90.9,0.4,134.9,0,136.8,0c1.5,0,2.8,0.6,3.8,1.7c1,1.1,1.4,2.6,1.1,4c-7.3,46.4-32.2,75.8-34.7,78.6 c-5.6,7.4-18.6,13.3-39.8,18.1c-15.1,3.4-28.5,4.9-29.1,5C38,107.5,37.8,107.5,37.6,107.5z M130.7,10.5 c-12.7,1.5-43.1,7.7-68.1,33.6c-0.1,0.1-0.2,0.2-0.3,0.3c-15.9,13.9-19,40.8-19.6,52.4c20.4-2.8,49.7-9.5,56.3-18.6 c0.1-0.1,0.2-0.3,0.3-0.4C99.6,77.6,122.5,51.6,130.7,10.5z"/> </g> <g> <path fill="#58595B" d="M77.8,131.9c-0.5,0-1-0.1-1.5-0.2c-1.9-0.6-3.2-2.3-3.4-4.3c-1.1-11.7-4.7-23.8-7.4-24.9l1.7-9.9 c8.1,1.3,12.1,12.8,14.1,22.8l15.6-17.8v-15h10v16.8c0,1.2-0.4,2.4-1.2,3.3l-24,27.3C80.6,131.3,79.2,131.9,77.8,131.9z"/> </g> <g> <path fill="#58595B" d="M38.4,74.7c-10.9-9.7-23.5-7.4-23.7-7.3c-2.2,0.4-4.5-0.7-5.5-2.7c-1-2-0.5-4.5,1.2-6l26.2-22.5 c0.9-0.8,2.1-1.2,3.3-1.2h19.8v10H41.8L26.7,58c5.6,1.2,12.2,3.8,18.4,9.3L38.4,74.7z"/> </g> <g> <path fill="#58595B" d="M13.8,131.9c-2.8,0-5-2.2-5-5c0-21.6,4.7-36.6,14.1-44.7c8.1-7,16.4-6.1,17.3-5.9 c2.7,0.4,4.6,2.9,4.3,5.6c-0.4,2.7-2.9,4.6-5.6,4.3c-0.3,0-5-0.4-9.6,3.8c-4.8,4.3-10.4,14.2-10.4,37 C18.8,129.7,16.5,131.9,13.8,131.9z"/> </g> <g> <path fill="#58595B" d="M15.2,131.9c-0.5,0-1,0-1.5,0c-2.8,0-5-2.3-4.9-5.1c0-2.7,2.3-4.9,5-4.9c0,0,0,0,0.1,0 c17.5,0.2,30.2-3.4,36.6-10.3c4.9-5.4,4.5-11,4.5-11.2c-0.3-2.7,1.6-5.2,4.4-5.5c2.7-0.3,5.2,1.7,5.6,4.4 c0,0.4,1.1,10.1-6.8,18.9C49.8,127.3,35.4,131.9,15.2,131.9z"/> </g> <g> <path fill="#58595B" d="M107.2,53c-1.2,0-2.3-0.4-3.2-1.2c-1.6-1.4-2.2-3.6-1.5-5.6c0.1-0.2,0.2-0.5,0.2-0.7c0.6-2,0.3-4.2-0.7-6 c-1-1.8-2.8-3.2-4.8-3.7c-0.8-0.2-1.7-0.3-2.6-0.3c-2.1,0.1-4.1-1.1-4.9-3c-0.8-1.9-0.4-4.2,1.2-5.6c3-2.7,6.8-4.3,10.8-4.3 c1.4,0,2.9,0.2,4.2,0.6c8.5,2.3,13.5,11.2,11.1,19.6c-1.1,4.1-3.7,7.5-7.4,9.6C108.9,52.8,108,53,107.2,53z"/> </g> <g> <path fill="#58595B" d="M57.4,106l-8.3-5.6l32.8-48.8l-1.6-2.2l6.8-5c2-1.4,4.7-1.3,6.4,0.4c1.8,1.7,2,4.4,0.7,6.4L57.4,106z"/> </g> <g> <rect x="58" y="33.2" transform="matrix(0.5902 0.8073 -0.8073 0.5902 80.8434 -22.8771)" fill="#58595B" width="10" height="70.1"/> </g> </g> </g> <g id="Layer_2"> <g> <path fill="#58595B" d="M70.6,0C34.2,0,4.8,29.4,4.8,65.7c0,36.3,29.4,65.7,65.7,65.7c36.3,0,65.7-29.4,65.7-65.7 C136.3,29.4,106.9,0,70.6,0z M70.6,120.4c-30.1,0-54.6-24.5-54.6-54.6s24.5-54.6,54.6-54.6s54.6,24.5,54.6,54.6 S100.7,120.4,70.6,120.4z"/> <path fill="#58595B" d="M85.5,47.1L76.6,56V26.9c0-3.3-2.7-6-6-6s-6,2.7-6,6v42.2c0,3.3,2.7,6,6,6c0.3,0,0.5,0,0.8-0.1 c0.2,0,0.4,0.1,0.6,0.1c1.5,0,3.1-0.6,4.2-1.8L94,55.5c2.3-2.3,2.3-6.1,0-8.5C91.6,44.7,87.8,44.7,85.5,47.1z"/> </g> </g> </svg>