<svg version="1.1" xmlns="http://www.w3.org/2000/svg" xmlns:xlink="http://www.w3.org/1999/xlink" x="0px" y="0px" viewBox="0 0 141.8 131.9" enable-background="new 0 0 141.8 131.9" xml:space="preserve"> <g id="Layer_1" display="none"> <g display="inline"> <g> <path fill="#58595B" d="M37.6,107.5c-1.2,0-2.4-0.4-3.3-1.2c-1.1-0.9-1.7-2.2-1.7-3.6c-0.1-1.8-1-44.6,23-65.6 C90.9,0.4,134.9,0,136.8,0c1.5,0,2.8,0.6,3.8,1.7c1,1.1,1.4,2.6,1.1,4c-7.3,46.4-32.2,75.8-34.7,78.6 c-5.6,7.4-18.6,13.3-39.8,18.1c-15.1,3.4-28.5,4.9-29.1,5C38,107.5,37.8,107.5,37.6,107.5z M130.7,10.5 c-12.7,1.5-43.1,7.7-68.1,33.6c-0.1,0.1-0.2,0.2-0.3,0.3c-15.9,13.9-19,40.8-19.6,52.4c20.4-2.8,49.7-9.5,56.3-18.6 c0.1-0.1,0.2-0.3,0.3-0.4C99.6,77.6,122.5,51.6,130.7,10.5z"/> </g> <g> <path fill="#58595B" d="M77.8,131.9c-0.5,0-1-0.1-1.5-0.2c-1.9-0.6-3.2-2.3-3.4-4.3c-1.1-11.7-4.7-23.8-7.4-24.9l1.7-9.9 c8.1,1.3,12.1,12.8,14.1,22.8l15.6-17.8v-15h10v16.8c0,1.2-0.4,2.4-1.2,3.3l-24,27.3C80.6,131.3,79.2,131.9,77.8,131.9z"/> </g> <g> <path fill="#58595B" d="M38.4,74.7c-10.9-9.7-23.5-7.4-23.7-7.3c-2.2,0.4-4.5-0.7-5.5-2.7c-1-2-0.5-4.5,1.2-6l26.2-22.5 c0.9-0.8,2.1-1.2,3.3-1.2h19.8v10H41.8L26.7,58c5.6,1.2,12.2,3.8,18.4,9.3L38.4,74.7z"/> </g> <g> <path fill="#58595B" d="M13.8,131.9c-2.8,0-5-2.2-5-5c0-21.6,4.7-36.6,14.1-44.7c8.1-7,16.4-6.1,17.3-5.9 c2.7,0.4,4.6,2.9,4.3,5.6c-0.4,2.7-2.9,4.6-5.6,4.3c-0.3,0-5-0.4-9.6,3.8c-4.8,4.3-10.4,14.2-10.4,37 C18.8,129.7,16.5,131.9,13.8,131.9z"/> </g> <g> <path fill="#58595B" d="M15.2,131.9c-0.5,0-1,0-1.5,0c-2.8,0-5-2.3-4.9-5.1c0-2.7,2.3-4.9,5-4.9c0,0,0,0,0.1,0 c17.5,0.2,30.2-3.4,36.6-10.3c4.9-5.4,4.5-11,4.5-11.2c-0.3-2.7,1.6-5.2,4.4-5.5c2.7-0.3,5.2,1.7,5.6,4.4 c0,0.4,1.1,10.1-6.8,18.9C49.8,127.3,35.4,131.9,15.2,131.9z"/> </g> <g> <path fill="#58595B" d="M107.2,53c-1.2,0-2.3-0.4-3.2-1.2c-1.6-1.4-2.2-3.6-1.5-5.6c0.1-0.2,0.2-0.5,0.2-0.7c0.6-2,0.3-4.2-0.7-6 c-1-1.8-2.8-3.2-4.8-3.7c-0.8-0.2-1.7-0.3-2.6-0.3c-2.1,0.1-4.1-1.1-4.9-3c-0.8-1.9-0.4-4.2,1.2-5.6c3-2.7,6.8-4.3,10.8-4.3 c1.4,0,2.9,0.2,4.2,0.6c8.5,2.3,13.5,11.2,11.1,19.6c-1.1,4.1-3.7,7.5-7.4,9.6C108.9,52.8,108,53,107.2,53z"/> </g> <g> <path fill="#58595B" d="M57.4,106l-8.3-5.6l32.8-48.8l-1.6-2.2l6.8-5c2-1.4,4.7-1.3,6.4,0.4c1.8,1.7,2,4.4,0.7,6.4L57.4,106z"/> </g> <g> <rect x="58" y="33.2" transform="matrix(0.5902 0.8073 -0.8073 0.5902 80.8434 -22.8771)" fill="#58595B" width="10" height="70.1"/> </g> </g> </g> <g id="Layer_2" display="none"> <g display="inline"> <path fill="#58595B" d="M70.6,0C34.2,0,4.8,29.4,4.8,65.7c0,36.3,29.4,65.7,65.7,65.7c36.3,0,65.7-29.4,65.7-65.7 C136.3,29.4,106.9,0,70.6,0z M70.6,120.4c-30.1,0-54.6-24.5-54.6-54.6s24.5-54.6,54.6-54.6s54.6,24.5,54.6,54.6 S100.7,120.4,70.6,120.4z"/> <path fill="#58595B" d="M85.5,47.1L76.6,56V26.9c0-3.3-2.7-6-6-6s-6,2.7-6,6v42.2c0,3.3,2.7,6,6,6c0.3,0,0.5,0,0.8-0.1 c0.2,0,0.4,0.1,0.6,0.1c1.5,0,3.1-0.6,4.2-1.8L94,55.5c2.3-2.3,2.3-6.1,0-8.5C91.6,44.7,87.8,44.7,85.5,47.1z"/> </g> </g> <g id="Layer_3" display="none"> <path display="inline" fill="#58595B" d="M69.1,11.5c14.6,0,19.3,8.5,19.3,16.3c0,8.7,0,17.4,0,26.1c0,4.8-1.6,14.7,3.4,17.7 c1.4,0.8,2.5,1.2,3.5,1.2c7.6,0,5.2-21,5-25.2c-0.2-8.1-2.2-23.4,10.2-23.4c7.7,0,13.9,2.3,13.9,9.3c0,11.6,1.4,41,0.4,44.3 c-3.5,11.6-25.4,12.1-35,12.1v24.8c0,0,2.3,6.2-18.5,6.2c0,0-1,0-2.4,0c-5.2,0-16.8-0.5-16.8-4.7c0-5.4,0-12.4,0-12.4 c0,0.1-0.2,0.1-0.4,0.1c-2.4,0-14.3-2.3-15-2.5c-7.8-2.3-20.8-8-20.9-17.6C15.7,76,12,58.9,18.5,53c2.4-2.2,8-4,13-4 c5.1,0,9.6,1.9,9.6,7.5c0,7.7,0,7.7,0,7.7c0,3.5-0.3,7.2,0,10.6c0.3,3.8,2.4,6.3,5.7,7.9c1.6,0.8,2.6,1.1,3.3,1.1 c0.4,0,0.8-0.1,1-0.4c0.4-0.5,0.6-1.5,1-2.9c1.2-5.4,0-12.6,0-18.2c0-10.2,0-20.5,0-30.7C52.1,31.7,54.4,11.5,69.1,11.5 M69.1,0.5 c-10.4,0-18.9,5.8-23.9,16.3c-3.1,6.5-3.9,12.9-4,13.6l-0.1,1.3v8.1c-2.8-1.2-6-1.8-9.6-1.8c-6.4,0-15.2,2.1-20.4,6.9 c-9.1,8.2-7.7,22.8-6.8,33.4c0.2,2.2,0.4,4.3,0.4,5.6c0.2,12.5,10.7,22.7,28.8,28c0.6,0.2,3.9,0.9,7.6,1.5v2.7 c0,3.6,1.5,12.2,15.5,14.7c4.3,0.8,9.1,0.9,12.3,0.9c1.3,0,2.2,0,2.6,0c14.4,0,22.7-2.8,26.9-8.8c2-2.8,2.8-6.1,2.4-9.3v-13.1 c12.9-1,30-4.7,34.5-19.5c1-3.2,1-7.8,0.4-30.6c-0.2-6.6-0.4-12.9-0.4-16.8c0-9.8-6.5-20.3-24.9-20.3c-6.1,0-10.3,2.1-13.1,4.4 C93.7,8.1,84.6,0.5,69.1,0.5L69.1,0.5z"/> </g> <g id="Layer_4" display="none"> <g display="inline"> <g> <path fill="#58595B" d="M72.1,131c-2.2,0-4.2-1.3-5.1-3.4L27,31.9c-0.7-1.7-0.5-3.6,0.5-5.2s2.7-2.5,4.6-2.5h78.6 c1.8,0,3.5,0.9,4.6,2.4c1,1.5,1.2,3.4,0.5,5.1l-38.6,95.8C76.3,129.7,74.3,131,72.1,131C72.1,131,72.1,131,72.1,131z M40.3,35.2 L72,111l30.6-75.8H40.3z"/> </g> <g> <circle fill="#58595B" cx="51.9" cy="54.3" r="11.7"/> </g> <g> <circle fill="#58595B" cx="82.8" cy="80.3" r="11.7"/> </g> <g> <circle fill="#58595B" cx="84" cy="42.4" r="11.7"/> </g> <g> <path fill="#58595B" d="M110.8,34H33.9c-9.5,0-17.2-7.7-17.2-17.2c0-9.5,7.7-17.2,17.2-17.2h76.8c9.5,0,17.2,7.7,17.2,17.2 C128,26.3,120.3,34,110.8,34z M33.9,10.6c-3.4,0-6.2,2.8-6.2,6.2c0,3.4,2.8,6.2,6.2,6.2h76.8c3.4,0,6.2-2.8,6.2-6.2 c0-3.4-2.8-6.2-6.2-6.2H33.9z"/> </g> </g> </g> <g id="Layer_5"> <g> <path fill="#58595B" d="M128.3,8.7c0,0-15.9-7.5-36.6-7.5c-16.2,0-35.4,4.6-52,21.2c0,0-48,39.6-27.3,99.9c0,0,14.9,9.6,36.8,9.6 c19,0,43.3-7.2,67.8-34.3C117,97.6,151.8,68.5,128.3,8.7z M124.6,36.7l-23.9-23.9c8.2,1,15,3,19,4.4 C122.1,23.9,123.7,30.4,124.6,36.7z M18.4,96.8l23.8,23.8c-9.4-1-16.7-3.9-20.6-5.8C19.8,108.7,18.7,102.7,18.4,96.8z M109.9,89.2 c-0.4,0.3-0.7,0.6-1.1,1c-16,17.7-33.2,27.8-51.3,30.1L19,81.8c1.3-8.9,4.1-17.6,8.6-26.1c8.2-15.6,19-24.7,19.1-24.7 c0.3-0.2,0.5-0.5,0.8-0.7c10.4-10.4,22.9-16.3,37.4-17.7l40.4,40.4c-0.4,6.1-1.6,12-3.7,17.6C117.3,82.4,110.5,88.7,109.9,89.2z" /> <path fill="#58595B" d="M99.8,47.8l0.5-0.5c2.2-2.1,2.2-5.6,0.1-7.8c-2.1-2.2-5.6-2.2-7.8-0.1L92,40.1L85.9,34 c-2.1-2.1-5.6-2.1-7.8,0c-2.1,2.1-2.1,5.6,0,7.8l6,6l-4.3,4.2l-5.5-5.5c-2.1-2.1-5.6-2.1-7.8,0c-2.1,2.1-2.1,5.6,0,7.8l5.4,5.4 L67,64.2l-5.3-5.3c-2.1-2.1-5.6-2.1-7.8,0c-2.1,2.1-2.1,5.6,0,7.8l5.2,5.2l-4.8,4.6l-5.1-5.1c-2.1-2.1-5.6-2.1-7.8,0 c-2.1,2.1-2.1,5.6,0,7.8l5,5l-0.3,0.3c-2.2,2.1-2.2,5.6-0.1,7.8c1.1,1.1,2.5,1.7,4,1.7c1.4,0,2.8-0.5,3.8-1.5l0.4-0.4l6.5,6.5 c1.1,1.1,2.5,1.6,3.9,1.6s2.8-0.5,3.9-1.6c2.1-2.1,2.1-5.6,0-7.8l-6.4-6.4l4.8-4.6l6.3,6.3c1.1,1.1,2.5,1.6,3.9,1.6 c1.4,0,2.8-0.5,3.9-1.6c2.1-2.1,2.1-5.6,0-7.8L74.8,72l4.8-4.6l6.1,6.1c1.1,1.1,2.5,1.6,3.9,1.6c1.4,0,2.8-0.5,3.9-1.6 c2.1-2.1,2.1-5.6,0-7.8l-6-6l4.3-4.2l5.5,5.5c1.1,1.1,2.5,1.6,3.9,1.6s2.8-0.5,3.9-1.6c2.1-2.1,2.1-5.6,0-7.8L99.8,47.8z"/> </g> </g> </svg>